<svg xmlns="http://www.w3.org/2000/svg" viewBox="0 0 512 512">
  <rect width="512" height="512" fill="#000000"/>
  <path fill="#FFD700" d="M256 64c13.3 0 24 10.7 24 24v115.5l99.8-57.6c11.5-6.6 26.2-2.7 32.8 8.8s2.7 26.2-8.8 32.8L304 245.2v.2l100.2 57.9c11.5 6.6 15.4 21.2 8.8 32.8s-21.2 15.4-32.8 8.8L280 287.3V424c0 13.3-10.7 24-24 24s-24-10.7-24-24V287.3l-100.2 57.6c-11.5 6.6-26.2 2.7-32.8-8.8s-2.7-26.2 8.8-32.8L208 245.4v-.2L107.8 187.3c-11.5-6.6-15.4-21.2-8.8-32.8s21.2-15.4 32.8-8.8L232 203.5V88c0-13.3 10.7-24 24-24z"/>
</svg>
